<svg width="476" height="144" viewBox="0 0 476 144" fill="none" xmlns="http://www.w3.org/2000/svg">
<path d="M217.773 86.072C215.307 89.2778 212.961 91.6194 208.643 94.0816L209.257 95.6795C220.491 92.8455 229.129 91.8606 237.766 91.8606C266.649 91.8606 277.874 101.096 277.874 118.1C277.874 121.427 277.501 125.246 276.635 128.693H251.085C251.699 126.11 251.83 122.653 251.83 119.578C251.83 111.196 246.766 105.659 230.478 105.659H220.602C219.736 109.85 218.871 114.04 218.871 118.593C218.871 122.904 219.978 126.482 222.575 128.693H194.7C191.74 121.055 196.431 111.819 216.424 107.257V105.659H200.498L197.539 96.2925C202.109 92.8455 205.935 88.5341 208.773 83.3585C199.633 79.1678 194.569 71.1581 194.569 59.5808C194.569 41.4712 206.911 32.1049 226.29 32.1049C248.015 32.1049 257.266 40.9788 258.625 53.0485H259.984C259.984 40.9788 263.81 30.507 279.484 30.507L279.363 54.8977C267.273 54.5258 262.582 56.6262 261.102 61.43C261.102 78.3035 247.652 86.9362 227.78 86.9362C224.196 86.9362 220.864 86.685 217.783 86.072H217.773ZM238.139 72.6455C239.005 68.4548 239.377 65.0077 239.377 60.4451C239.377 51.5712 235.673 47.3905 226.169 47.3905C223.703 47.3905 220.864 47.6418 217.653 48.6266C216.908 52.8174 216.414 56.2644 216.414 60.6964C216.414 69.6909 220.119 73.8816 229.622 73.8816C232.089 73.8816 235.179 73.6304 238.139 72.6455Z" fill="#2E7D5F"/>
<path d="M282.192 92.6043C282.192 79.2984 290.095 70.0627 311.437 70.0627C320.195 70.0627 328.34 70.927 335.376 71.7913V69.0779C335.376 54.2947 330.444 47.0287 318.343 47.0287C313.773 47.0287 309.947 47.893 305.88 50.4758C305.135 55.5308 304.521 60.4552 304.4 66.1232L282.675 62.9174C285.263 41.8531 298.229 31.2506 321.182 31.2506C346.48 31.2506 356.97 43.0792 356.97 64.3947V91.74C356.97 99.2572 357.091 105.418 357.463 112.312H334.511L337.47 90.6245H336.111C332.9 103.066 322.41 114.03 305.628 114.03C292.179 114.03 282.182 106.885 282.182 92.5942L282.192 92.6043ZM335.386 84.464V79.5396L316.632 79.2884C307.622 79.2884 303.796 82.8661 303.796 88.1623C303.796 94.0715 307.873 96.9056 314.034 96.9056C322.058 96.9056 328.722 93.3279 335.386 84.464Z" fill="#2E7D5F"/>
<path d="M368.215 65.2489C368.215 49.4809 368.215 34.3259 367.963 19.2914L390.795 17.5629C390.423 33.0897 389.93 50.2145 389.809 68.1935H394.248L416.215 33.0797H442.127L419.909 63.8821C417.07 68.1935 412.872 70.1632 404.235 70.5351V71.8918C412.872 72.0124 416.577 74.354 420.03 79.409C427.681 90.0014 435.211 100.232 444.463 112.422H417.805L394.359 74.8464H389.789C389.909 82.6048 390.161 94.4333 390.775 112.422H367.943C368.195 97.0262 368.195 81.2481 368.195 65.2389L368.215 65.2489Z" fill="#2E7D5F"/>
<path d="M448.429 17.9448C448.429 12.0355 451.882 9.07086 461.758 9.07086C471.634 9.07086 475.087 12.1461 475.087 17.9448C475.087 24.9695 471.754 27.8036 461.758 27.8036C451.761 27.8036 448.429 24.9695 448.429 17.9448ZM450.896 73.6304C450.896 60.6964 450.775 47.6317 450.402 32.7279C453.734 32.9792 457.681 33.2204 461.758 33.2204C465.835 33.2204 469.66 32.9691 472.993 32.7279C472.62 47.6317 472.499 60.817 472.499 73.6304C472.499 86.4438 472.62 99.6291 472.993 112.442H450.412C450.785 99.5085 450.906 86.5744 450.906 73.6304H450.896Z" fill="#2E7D5F"/>
<path d="M10.1255 144L0 125.447C40.8628 89.8364 70.5277 37.0745 70.5277 0H92.181C92.181 37.0745 121.846 89.8364 162.709 125.447L152.542 143.99C105.719 130.219 57.8039 130.219 10.1255 144ZM81.375 49.1956C72.394 71.5001 58.2369 94.4849 40.5431 115.151C67.8469 110.966 95.1403 110.945 122.207 115.089C111.164 102.133 101.265 88.0017 93.1709 73.5615C88.5515 65.3159 84.6127 57.163 81.375 49.1956Z" fill="#2E7D5F"/>
</svg>
